<svg width="70" height="70" fill="none" xmlns="http://www.w3.org/2000/svg"><path d="M68.957 33.471C68.954 14.982 53.962-.004 35.472 0 16.982.004 1.995 14.996 2 33.486A33.479 33.479 0 0 0 25.296 65.37c.132.042.27.063.408.063.264 0 .523-.071.75-.205.295-.175.515-.453.619-.78l8.455-26.797a4.184 4.184 0 1 0-1.838-7.95L22.521 18.53a1.395 1.395 0 0 0-1.972 1.973l11.163 11.176a4.104 4.104 0 0 0 1.174 5.051L24.83 62.265C8.91 56.4.758 38.74 6.622 22.82 12.487 6.9 30.146-1.252 46.067 4.613c15.92 5.864 24.072 23.524 18.207 39.444A30.72 30.72 0 0 1 47.951 61.5l-.87-4.1a1.394 1.394 0 0 0-2.294-.752l-8.393 7.494a1.394 1.394 0 0 0 .505 2.372l10.716 3.42a1.394 1.394 0 0 0 1.791-1.619l-.855-4.022a33.37 33.37 0 0 0 20.406-30.82ZM35.48 32.078a1.395 1.395 0 1 1 0 2.79 1.395 1.395 0 0 1 0-2.79Zm4.595 32.515 4.777-4.262 1.319 6.213-6.096-1.951Z" fill="#212121"/><path d="M33.588 6.967v2.79a1.395 1.395 0 1 0 2.79 0v-2.79a1.395 1.395 0 0 0-2.79 0ZM8.479 32.077a1.395 1.395 0 0 0 0 2.79h2.79a1.395 1.395 0 1 0 0-2.79h-2.79ZM61.487 34.867a1.395 1.395 0 1 0 0-2.79h-2.79a1.395 1.395 0 0 0 0 2.79h2.79Z" fill="#2196F3"/></svg>